#!OML:ASF F:\VICON\USERDATA\Patient Classification 1\PLAYGROUND\JustinFriday\JustinFriday.ASF
:FULLY-SPECIFIED
:DEGREES
4688
root 29.385 15.8624 5.50702 -14.6823 -28.3697 -2.37264
lowerback 17.1324 1.30071 3.4044
upperback 4.28841 2.39733 2.75671
thorax -4.98215 1.1218 0.492979
lowerneck 9.62255 -8.26688 -10.312
upperneck 1.75608 -12.1277 13.6313
head 0.425582 -6.36861 5.93111
rclavicle -2.00959e-014 -1.59028e-015
rhumerus 16.0497 -34.8032 -27.9135
rradius 123.407
rwrist 11.9522
rhand -43.2443 -28.6571
rfingers 7.12502
rthumb -16.0936 -58.0088
lclavicle -2.00959e-014 -1.59028e-015
lhumerus -8.45519 29.5253 13.0503
lradius 126.399
lwrist -26.032
lhand -52.3595 -17.6278
lfingers 7.12502
lthumb -24.8521 10.7769
rfemur -8.74029 -3.59355 24.8453
rtibia 79.1632
rfoot -21.1254 -11.7525
rtoes -19.5074
lfemur -5.32665 -0.192826 -7.71092
ltibia 64.8015
lfoot -33.3363 -0.0425578
ltoes -16.2012
4689
root 29.3437 15.9287 5.54731 -14.8286 -28.449 -1.63904
lowerback 17.0512 1.32811 2.68028
upperback 4.45635 2.28141 2.49689
thorax -4.78004 1.07377 0.654024
lowerneck 9.65788 -8.42232 -10.0254
upperneck 1.42112 -12.2815 13.8681
head 0.337561 -6.45296 5.96668
rclavicle -7.49418e-014 -1.90833e-014
rhumerus 10.7675 -31.6126 -28.5068
rradius 123.962
rwrist 14.3152
rhand -44.6046 -28.4583
rfingers 7.12502
rthumb -17.4032 -57.6992
lclavicle -7.49418e-014 -1.90833e-014
lhumerus -12.2988 26.0013 16.6525
lradius 126.631
lwrist -30.3699
lhand -53.4068 -18.6512
lfingers 7.12502
lthumb -25.8553 9.61124
rfemur -9.82087 -4.26059 23.3876
rtibia 80.3291
rfoot -19.0629 -8.94337
rtoes -16.8778
lfemur -4.8545 -0.167875 -8.48598
ltibia 63.9019
lfoot -32.7873 0.360523
ltoes -16.9884
4690
root 29.3017 15.9968 5.58489 -14.9725 -28.4073 -0.620323
lowerback 16.8458 1.40619 1.69892
upperback 4.6385 2.18612 2.18699
thorax -4.50299 1.03627 0.906695
lowerneck 9.75227 -8.54994 -9.8397
upperneck 0.87335 -12.3914 14.253
head 0.187718 -6.52444 6.07339
rclavicle 2.2736e-015 6.36111e-015
rhumerus 5.93538 -28.489 -29.6128
rradius 124.063
rwrist 15.7728
rhand -45.4346 -27.8571
rfingers 7.12502
rthumb -18.2018 -57.0255
lclavicle 2.2736e-015 6.36111e-015
lhumerus -15.612 23.0511 20.6008
lradius 126.04
lwrist -33.4208
lhand -53.1971 -19.9007
lfingers 7.12502
lthumb -25.6545 8.39082
rfemur -11.1646 -5.01578 21.566
rtibia 81.4441
rfoot -16.3113 -6.24033
rtoes -13.9815
lfemur -4.49568 -0.131253 -9.57727
ltibia 62.8464
lfoot -32.2364 0.416482
ltoes -17.5713
4691
root 29.2565 16.0573 5.61305 -14.908 -28.462 0.0567015
lowerback 16.7442 1.4679 0.973458
upperback 4.83143 2.1256 1.98988
thorax -4.26299 1.01029 1.12552
lowerneck 9.83911 -8.74727 -9.65333
upperneck -0.084957 -12.5485 14.5812
head -0.076987 -6.62551 6.17394
rclavicle -6.99474e-014 -5.56597e-015
rhumerus 1.84386 -25.6041 -31.2725
rradius 123.526
rwrist 16.146
rhand -44.311 -25.9378
rfingers 7.12502
rthumb -17.1206 -55.2035
lclavicle -6.99474e-014 -5.56597e-015
lhumerus -18.4882 20.753 24.8445
lradius 124.666
lwrist -35.0131
lhand -51.8755 -20.971
lfingers 7.12502
lthumb -24.3881 7.49697
rfemur -12.6439 -5.7968 20.2368
rtibia 82.4394
rfoot -12.9474 -4.47851
rtoes -14.041
lfemur -4.1796 -0.0877149 -10.2507
ltibia 61.7589
lfoot -31.6811 0.508358
ltoes -17.4843
4692
root 29.2078 16.1189 5.64209 -14.4639 -28.6916 -0.0213698
lowerback 16.6527 1.4785 0.957968
upperback 4.95338 2.12924 1.9846
thorax -4.08536 1.01168 1.13164
lowerneck 9.85529 -8.98958 -9.40015
upperneck -0.889618 -12.7659 14.7439
head -0.292005 -6.75058 6.2059
rclavicle 1.16538e-014 1.19271e-014
rhumerus -1.7229 -22.8831 -33.3188
rradius 122.289
rwrist 15.5171
rhand -42.3395 -23.4551
rfingers 7.12502
rthumb -15.2222 -52.8751
lclavicle 1.16538e-014 1.19271e-014
lhumerus -20.852 18.9364 29.4093
lradius 122.528
lwrist -35.3382
lhand -50.2497 -20.1875
lfingers 7.12502
lthumb -22.8288 8.48143
rfemur -14.074 -6.46586 19.7749
rtibia 83.3195
rfoot -9.6187 -2.67578
rtoes -13.257
lfemur -3.83065 0.0408171 -10.0699
ltibia 60.6775
lfoot -31.2312 0.434568
ltoes -16.7543
4693
root 29.1587 16.1863 5.67605 -13.8631 -28.8858 -0.195968
lowerback 16.5502 1.47749 1.05708
upperback 4.87992 2.14722 2.03729
thorax -4.10726 1.02053 1.12892
lowerneck 9.75129 -9.18569 -9.41549
upperneck -1.08429 -13.0063 14.9083
head -0.289817 -6.87385 6.25264
rclavicle 3.70236e-015 2.54444e-014
rhumerus -5.19105 -20.3037 -35.4564
rradius 120.643
rwrist 13.6188
rhand -40.1583 -21.4183
rfingers 7.12502
rthumb -13.1204 -50.9855
lclavicle 3.70236e-015 2.54444e-014
lhumerus -23.0189 17.5648 33.8632
lradius 120.003
lwrist -33.5814
lhand -47.347 -18.2041
lfingers 7.12502
lthumb -20.0409 10.7824
rfemur -15.5555 -7.12893 19.382
rtibia 84.1253
rfoot -6.3757 -0.568172
rtoes -9.69606
lfemur -3.55333 0.248076 -9.79352
ltibia 59.5448
lfoot -30.9423 0.491212
ltoes -16.7904
4694
root 29.1073 16.259 5.71436 -13.3398 -28.8609 -0.102213
lowerback 16.4074 1.41274 0.954642
upperback 4.81209 2.04318 1.9913
thorax -4.1034 0.970296 1.16095
lowerneck 9.2325 -9.37636 -9.4604
upperneck -0.945374 -13.2523 15.0894
head -0.119337 -6.97989 6.27107
rclavicle -3.4191e-014 -2.38542e-015
rhumerus -8.32618 -18.1053 -37.8113
rradius 118.761
rwrist 10.7015
rhand -37.0976 -21.353
rfingers 7.12502
rthumb -10.1688 -51.0873
lclavicle -3.4191e-014 -2.38542e-015
lhumerus -24.9584 17.0635 37.9982
lradius 117.369
lwrist -29.8655
lhand -43.0884 -15.7912
lfingers 7.12502
lthumb -15.9435 13.5726
rfemur -17.0586 -8.09203 18.6352
rtibia 84.873
rfoot -3.28969 1.37638
rtoes -8.18119
lfemur -3.35602 0.299221 -9.84676
ltibia 58.3421
lfoot -30.7035 0.517959
ltoes -17.0016
4695
root 29.0551 16.333 5.75322 -12.906 -28.7682 0.262139
lowerback 16.0535 1.34851 0.672346
upperback 4.87232 1.89877 1.83863
thorax -3.85254 0.901043 1.19543
lowerneck 8.41474 -9.62446 -9.49284
upperneck -0.791233 -13.5601 15.3777
head 0.119306 -7.10694 6.29694
rclavicle 4.25399e-014 -2.38542e-015
rhumerus -11.1224 -16.5319 -40.4727
rradius 116.404
rwrist 7.48584
rhand -34.2304 -22.5952
rfingers 7.12502
rthumb -7.40197 -52.4457
lclavicle 4.25399e-014 -2.38542e-015
lhumerus -26.005 17.6495 42.1184
lradius 114.241
lwrist -25.1587
lhand -39.1987 -13.5104
lfingers 7.12502
lthumb -12.1952 16.1141
rfemur -18.6236 -9.1975 17.5643
rtibia 85.5732
rfoot -0.763931 3.38349
rtoes -9.14141
lfemur -3.2129 0.211025 -10.2277
ltibia 57.0911
lfoot -30.3441 0.278209
ltoes -16.5795
4696
root 29.0029 16.4044 5.79048 -12.4302 -28.7606 0.48206
lowerback 15.7346 1.2909 0.528679
upperback 4.91713 1.79158 1.76373
thorax -3.63495 0.848999 1.22455
lowerneck 8.06245 -9.82218 -9.76765
upperneck -1.09077 -13.8055 15.8984
head 0.177512 -7.23199 6.47355
rclavicle -2.61402e-014 -8.74653e-015
rhumerus -13.5567 -15.3952 -43.0733
rradius 113.668
rwrist 4.16907
rhand -31.4686 -23.4258
rfingers 7.12502
rthumb -4.73558 -53.3529
lclavicle -2.61402e-014 -8.74653e-015
lhumerus -26.4316 19.2339 45.9301
lradius 110.838
lwrist -19.1116
lhand -34.8958 -12.6295
lfingers 7.12502
lthumb -8.04424 17.1974
rfemur -20.088 -10.2248 16.6971
rtibia 86.1664
rfoot 0.966615 5.26759
rtoes -8.81072
lfemur -3.0198 0.0893518 -10.4758
ltibia 55.8476
lfoot -30.0104 0.287774
ltoes -16.4685
